<svg xmlns="http://www.w3.org/2000/svg" viewBox="0 0 490.667 490.667"><path d="M245.333 0C109.839 0 0 109.839 0 245.333s109.839 245.333 245.333 245.333 245.333-109.839 245.333-245.333C490.514 109.903 380.764.153 245.333 0z" fill="#ffc107"/><path d="M404.523 262.592a10.668 10.668 0 00-9.856-6.592H320V96.171c0-5.891-4.776-10.667-10.667-10.667h-128c-5.891 0-10.667 4.776-10.667 10.667V256H96a10.667 10.667 0 00-7.552 18.219l149.333 149.504c4.165 4.164 10.917 4.164 15.083 0l149.333-149.504a10.669 10.669 0 002.326-11.627z" fill="#fafafa"/></svg>